<svg version="1" xmlns="http://www.w3.org/2000/svg" width="917.333" height="917.333" viewBox="0 0 688.000000 688.000000"><path d="M535.7 106.6c-.1.1-21.3.5-47.2.8-58.9.8-100.4 1.4-139.5 2.1-16.8.2-48.5.7-70.5 1.1-22 .3-40.2.8-40.5 1.1-.4.4 5.8 12.7 21.9 43.8l2.6 4.9 100 .1c55 0 100.1.3 100.3.8.3.9-.6 3-9.3 22-3.7 8.2-6.6 14.9-6.4 15.1.2.1 4 1.1 8.4 2.1 10.7 2.5 21.9 6.6 34 12.6 5.5 2.7 10.4 4.9 10.8 4.9.9 0 10.1-19.1 16.8-35.3 2.9-6.7 5.5-12.7 5.9-13.2.4-.6 1.4-2.8 2.2-5 5.2-13.3 21.1-45.8 26-53.1l3.4-5-9.4.1c-5.2 0-9.4.1-9.5.1z"/><path d="M174.7 113.7c-.1.1-9.6.4-21.2.6-11.5.3-21.1.6-21.2.6-.1.1 4.9 9.2 11.1 20.3 6.2 11.2 12.8 23 14.6 26.3 1.8 3.3 7.6 13.6 12.8 23 5.2 9.3 10.7 19.3 12.3 22.2 1.5 2.8 14.1 25.5 27.9 50.4l25.2 45.3-5.1 10.5c-7.6 15.9-14.4 37.3-16.6 52.4-.3 2.7-.9 5.9-1.2 7-.9 4-1.1 40.1-.2 47.2 3.2 24.7 6.5 38.1 14.5 57.3 17.8 43.1 51.5 76.1 95.4 93.5 7.6 3 21.9 7.2 27.4 8.1 2.2.4 4.8.8 6 1.1 15.6 3.5 48.9 3.9 69.6.9 13.5-2 32.8-7.2 45.5-12.3 18.4-7.4 45.7-23.6 60.2-35.9 10.1-8.4 10.1-8.4 9.8-15-.2-3.1-.6-16.3-1-29.2-.4-12.9-.8-27.6-1-32.5-.2-5-.6-19.1-1-31.5-.4-12.4-.8-25.9-1-30-.2-4.1-.4-8.7-.4-10.2l-.1-2.6-8.7.3c-4.9.2-20.3.7-34.3 1.1-14 .3-29.1.8-33.5.9-4.4.2-10 .4-12.5.4-4.1.1-4.6.4-5.9 3.3-.8 1.8-4.5 9.7-8.3 17.5-3.7 7.8-6.8 14.6-6.8 15 0 .5 2.1.8 4.8.6 8.8-.4 44.7-1.5 56.2-1.7l11.5-.1.1 4.5c.5 15.5 1.5 46.5 2 64l.6 20.5-5.9 4.6c-13.3 10.3-32.5 20.3-50.6 26.3-9.4 3.2-11.8 3.8-18.7 5.1-1.4.3-3.5.7-4.7.9-16.6 3.4-45.9 2.5-63.6-1.9-14.7-3.7-35-12.5-43.2-18.7-23.2-17.7-34.8-31.5-45.4-53.9-11.6-24.6-15.6-43.6-15.6-73.9 0-17.2.7-23.4 3.6-36 13.5-58 55.1-99.3 109.3-108.5 13.9-2.3 39.6-2.3 51.9.1 1.5.3 2.7.7 2.7 1 0 .3-2.4 5.7-9.5 20.9-9.3 20-13.5 29.5-13.5 30.3 0 .4-.5 1.3-1.2 2-.6.6-1.3 1.7-1.4 2.4-.1.7-2.2 5.6-4.7 10.8-6.1 13-23.9 51.7-24.2 53-.2.7-7.2 15.9-11.1 24l-3 6.4-8.4-15.9c-4.5-8.8-10-19.2-12-23-5.3-9.9-13.8-26.1-20.7-39.2-3.2-6.2-6.1-11.3-6.4-11.3-1.1 0-13.2 16.6-18.6 25.5-7.6 12.3-11 20.5-11.9 28-.7 5.6-.5 6.1 12.3 28.7 2.3 4.3 4.3 8 4.3 8.3 0 .3 1.1 2.2 2.3 4.3 1.3 2 4.1 6.8 6.2 10.7 6.5 11.9 9 16.5 17.7 32l8.3 15 26-.3c14.3-.1 27-.5 28.2-.7 1.4-.3 3-2.3 4.6-5.8 2.7-5.5 14.1-29.2 25.9-53.7 3.9-8 8.7-18.1 10.8-22.5 2.1-4.4 6.8-14.3 10.5-22 3.7-7.7 8.2-17.2 10-21 1.8-3.9 5.8-12.4 9-19s7.7-16.1 10-21.1c2.4-5 6.3-13.3 8.7-18.3l4.4-9.2 9.4 6.7c5.2 3.7 9.8 7.2 10.2 7.8.9 1.3-.2 2.5 14.4-15.8l11.8-14.9-2.9-2.4c-5.6-4.5-25-17.1-33-21.3-12-6.4-31.1-13.3-42.5-15.4-1.4-.2-3.6-.7-5-1-8.4-2.1-26.4-3.3-45.5-3-20.7.3-22.7.4-33.5 2.4-8.2 1.5-9 1.7-16 3.5-19.6 5.1-46.5 19-63.5 32.9l-3 2.5-5.8-11.2c-7.4-14.4-24.2-46.4-33.2-63.2-1.8-3.3-6.5-12.3-10.5-20-4-7.7-9.4-18.1-12-23-2.6-5-6.5-12.2-8.5-16.1l-3.8-7.2-13.4.2c-7.4 0-13.5.2-13.6.3z"/></svg>